<svg width="512" height="512" viewBox="0 0 512 512" fill="none" xmlns="http://www.w3.org/2000/svg">
<rect width="512" height="512" rx="26" fill="#1B192B"/>
<mask id="mask0_402_2" style="mask-type:alpha" maskUnits="userSpaceOnUse" x="94" y="38" width="323" height="324">
<rect x="94.1461" y="38.6899" width="322.418" height="322.418" rx="161.209" fill="#1A0909"/>
</mask>
<g mask="url(#mask0_402_2)">
<rect x="94.1461" y="70.9316" width="353.37" height="308.232" rx="154.116" fill="#89A2FC"/>
<rect width="549.63" height="262.816" rx="131.408" transform="matrix(0.78717 -0.616736 0.302422 0.953174 -27.2842 107.889)" fill="#6B4CE6"/>
<circle cx="255.407" cy="199.951" r="118.439" fill="white"/>
<path d="M295.4 213.496C295.784 213.368 296.36 213.304 297.128 213.304C299.304 213.304 300.392 214.712 300.392 217.528C300.392 219.064 300.04 220.376 299.336 221.464C298.696 222.488 297.672 223.128 296.264 223.384C290.44 224.472 284.712 225.688 279.08 227.032L278.792 229.336C277 241.944 273.416 251.256 268.04 257.272C262.728 263.352 256.072 266.392 248.072 266.392C242.76 266.392 238.632 265.08 235.688 262.456C232.808 259.896 231.368 256.6 231.368 252.568C231.368 245.848 234.376 239.864 240.392 234.616C246.408 229.368 255.528 224.728 267.752 220.696L269.672 207.16C269.928 205.624 270.248 203.576 270.632 201.016C267.624 208.952 263.784 214.872 259.112 218.776C254.44 222.68 249.224 224.632 243.464 224.632C237.96 224.632 233.768 222.968 230.888 219.64C228.008 216.248 226.568 211.896 226.568 206.584C226.568 204.216 226.824 201.624 227.336 198.808C227.848 195.928 228.648 192.056 229.736 187.192C230.696 182.776 231.4 179.256 231.848 176.632C232.36 174.008 232.616 171.672 232.616 169.624C232.616 166.552 231.432 165.016 229.064 165.016C227.208 165.016 225 165.944 222.44 167.8C219.944 169.592 217.288 172.376 214.472 176.152C213.576 177.368 212.584 177.976 211.496 177.976C210.6 177.976 209.8 177.56 209.096 176.728C208.456 175.832 208.136 174.84 208.136 173.752C208.136 171.768 209.032 169.528 210.824 167.032C217.352 158.072 225 153.592 233.768 153.592C237.672 153.592 240.712 154.776 242.888 157.144C245.128 159.512 246.248 163 246.248 167.608C246.248 170.936 245.928 174.36 245.288 177.88C244.712 181.336 243.816 185.752 242.6 191.128C241.832 194.328 241.256 196.92 240.872 198.904C240.488 200.824 240.296 202.424 240.296 203.704C240.296 206.968 240.872 209.304 242.024 210.712C243.176 212.12 245.192 212.824 248.072 212.824C251.528 212.824 255.048 210.936 258.632 207.16C262.28 203.32 265.544 197.528 268.424 189.784C271.368 182.04 273.48 172.568 274.76 161.368C275.08 158.552 275.816 156.568 276.968 155.416C278.12 154.2 279.784 153.592 281.96 153.592C286.44 153.592 288.68 155.832 288.68 160.312C288.68 161.08 288.648 161.688 288.584 162.136C287.24 171.672 285.992 180.28 284.84 187.96C284.2 192.568 283.496 197.304 282.728 202.168C282.024 207.032 281.32 211.96 280.616 216.952C285.288 215.672 290.216 214.52 295.4 213.496ZM266.312 230.776C250.824 236.152 243.08 242.68 243.08 250.36C243.08 252.152 243.624 253.624 244.712 254.776C245.864 255.992 247.464 256.6 249.512 256.6C258.408 256.6 263.976 248.216 266.216 231.448L266.312 230.776Z" fill="black"/>
</g>
<path d="M78.5491 413.968V414.928C77.8451 415.216 77.1251 415.792 76.3891 416.656C75.6531 417.488 74.8371 418.768 73.9411 420.496L64.8691 438.448H62.6131L51.3811 417.664C50.8051 416.576 50.2771 415.856 49.7971 415.504C49.3491 415.152 48.9491 414.976 48.5971 414.976V413.968C49.4611 414.064 50.3411 414.128 51.2371 414.16C52.1651 414.192 53.1731 414.208 54.2611 414.208C55.6691 414.208 57.1891 414.192 58.8211 414.16C60.4531 414.096 61.9411 414.032 63.2851 413.968V414.976C62.4851 414.976 61.7651 415.04 61.1251 415.168C60.4851 415.296 60.0371 415.536 59.7811 415.888C59.5251 416.208 59.5891 416.736 59.9731 417.472L67.5571 432.064L66.0691 433.984L71.0131 424.048C72.1971 421.744 72.8211 419.936 72.8851 418.624C72.9811 417.312 72.6611 416.384 71.9251 415.84C71.2211 415.264 70.2131 414.96 68.9011 414.928V413.968C69.9891 414 71.0131 414.032 71.9731 414.064C72.9331 414.096 73.9091 414.112 74.9011 414.112C75.6051 414.112 76.2611 414.096 76.8691 414.064C77.5091 414.032 78.0691 414 78.5491 413.968ZM68.2771 430.864V442.912C68.2771 444.064 68.3571 444.928 68.5171 445.504C68.7091 446.08 69.0611 446.464 69.5731 446.656C70.0851 446.848 70.8531 446.976 71.8771 447.04V448C71.0131 447.936 69.8931 447.904 68.5171 447.904C67.1731 447.872 65.8291 447.856 64.4851 447.856C62.9811 447.856 61.5571 447.872 60.2131 447.904C58.8691 447.904 57.8131 447.936 57.0451 448V447.04C58.0691 446.976 58.8371 446.848 59.3491 446.656C59.8611 446.464 60.1971 446.08 60.3571 445.504C60.5491 444.928 60.6451 444.064 60.6451 442.912V433.072L64.8211 436.048L68.2771 430.864ZM102.471 413.92L114.135 443.968C114.583 445.12 115.079 445.92 115.623 446.368C116.199 446.784 116.711 447.008 117.159 447.04V448C116.199 447.936 115.063 447.904 113.751 447.904C112.471 447.872 111.175 447.856 109.863 447.856C108.391 447.856 106.999 447.872 105.687 447.904C104.375 447.904 103.335 447.936 102.567 448V447.04C104.199 446.976 105.223 446.704 105.639 446.224C106.087 445.712 105.991 444.64 105.351 443.008L97.1915 420.688L98.0555 419.44L90.7595 438.448C90.0555 440.208 89.6235 441.648 89.4635 442.768C89.3355 443.888 89.4155 444.752 89.7035 445.36C90.0235 445.968 90.5195 446.4 91.1915 446.656C91.8955 446.88 92.7275 447.008 93.6875 447.04V448C92.6315 447.936 91.6235 447.904 90.6635 447.904C89.7035 447.872 88.7275 447.856 87.7355 447.856C87.0315 447.856 86.3595 447.872 85.7195 447.904C85.1115 447.904 84.5675 447.936 84.0875 448V447.04C84.7595 446.912 85.4475 446.48 86.1515 445.744C86.8555 445.008 87.5435 443.76 88.2155 442L99.1595 413.92C99.6715 413.952 100.215 413.968 100.791 413.968C101.399 413.968 101.959 413.952 102.471 413.92ZM105.831 434.176V435.136H91.5275L92.0075 434.176H105.831ZM157.79 414.016V414.976C156.766 415.104 155.998 415.376 155.486 415.792C154.974 416.176 154.622 416.8 154.43 417.664C154.27 418.528 154.19 419.744 154.19 421.312V448.096C153.806 448.064 153.406 448.048 152.99 448.048C152.606 448.048 152.19 448.064 151.742 448.096L130.91 421.696V440.128C130.91 441.888 131.006 443.248 131.198 444.208C131.39 445.136 131.806 445.808 132.446 446.224C133.118 446.608 134.158 446.88 135.566 447.04V448C134.958 447.936 134.158 447.904 133.166 447.904C132.174 447.872 131.246 447.856 130.382 447.856C129.646 447.856 128.894 447.872 128.126 447.904C127.358 447.904 126.718 447.936 126.206 448V447.04C127.23 446.88 127.998 446.608 128.51 446.224C129.022 445.84 129.358 445.216 129.518 444.352C129.71 443.456 129.806 442.24 129.806 440.704V419.104C129.806 417.92 129.71 417.056 129.518 416.512C129.358 415.936 129.006 415.552 128.462 415.36C127.95 415.136 127.198 415.008 126.206 414.976V414.016C126.718 414.048 127.358 414.08 128.126 414.112C128.894 414.144 129.646 414.16 130.382 414.16C131.15 414.16 131.886 414.144 132.59 414.112C133.294 414.08 133.934 414.048 134.51 414.016L153.086 436.912V421.888C153.086 420.128 152.99 418.784 152.798 417.856C152.606 416.896 152.174 416.208 151.502 415.792C150.862 415.376 149.838 415.104 148.43 414.976V414.016C149.038 414.048 149.838 414.08 150.83 414.112C151.822 414.144 152.75 414.16 153.614 414.16C154.382 414.16 155.134 414.144 155.87 414.112C156.638 414.08 157.278 414.048 157.79 414.016ZM166.702 457.024V456.064C167.982 455.936 169.07 455.552 169.966 454.912C170.862 454.304 171.55 453.248 172.03 451.744C172.51 450.24 172.75 448.128 172.75 445.408V419.104C172.75 417.92 172.654 417.056 172.462 416.512C172.302 415.936 171.966 415.552 171.454 415.36C170.942 415.136 170.174 415.008 169.15 414.976V414.016C169.95 414.048 170.99 414.08 172.27 414.112C173.582 414.144 174.958 414.16 176.398 414.16C177.838 414.16 179.23 414.144 180.574 414.112C181.95 414.08 183.086 414.048 183.982 414.016V414.976C182.99 415.008 182.222 415.136 181.678 415.36C181.166 415.552 180.814 415.936 180.622 416.512C180.462 417.056 180.382 417.92 180.382 419.104V436.672C180.382 437.984 180.382 439.408 180.382 440.944C180.382 442.448 180.318 443.92 180.19 445.36C180.094 446.8 179.886 448.08 179.566 449.2C178.926 451.408 177.534 453.264 175.39 454.768C173.278 456.272 170.382 457.024 166.702 457.024ZM210.395 414.016V414.976C209.371 415.008 208.587 415.136 208.043 415.36C207.531 415.552 207.195 415.936 207.035 416.512C206.875 417.056 206.795 417.92 206.795 419.104V442.912C206.795 444.064 206.875 444.928 207.035 445.504C207.227 446.08 207.579 446.464 208.091 446.656C208.603 446.848 209.371 446.976 210.395 447.04V448C209.531 447.936 208.443 447.904 207.131 447.904C205.819 447.872 204.491 447.856 203.147 447.856C201.579 447.856 200.123 447.872 198.779 447.904C197.467 447.904 196.395 447.936 195.563 448V447.04C196.587 446.976 197.355 446.848 197.867 446.656C198.379 446.464 198.715 446.08 198.875 445.504C199.067 444.928 199.163 444.064 199.163 442.912V419.104C199.163 417.92 199.067 417.056 198.875 416.512C198.715 415.936 198.363 415.552 197.819 415.36C197.307 415.136 196.555 415.008 195.563 414.976V414.016C196.395 414.048 197.467 414.08 198.779 414.112C200.123 414.144 201.579 414.16 203.147 414.16C204.491 414.16 205.819 414.144 207.131 414.112C208.443 414.08 209.531 414.048 210.395 414.016ZM254.093 413.392C255.981 413.392 257.437 413.6 258.461 414.016C259.485 414.4 260.365 414.816 261.101 415.264C261.485 415.488 261.789 415.664 262.013 415.792C262.269 415.888 262.509 415.936 262.733 415.936C263.053 415.936 263.277 415.76 263.405 415.408C263.565 415.056 263.693 414.528 263.789 413.824H264.893C264.861 414.432 264.813 415.168 264.749 416.032C264.717 416.864 264.685 417.968 264.653 419.344C264.653 420.72 264.653 422.528 264.653 424.768H263.549C263.421 423.104 263.037 421.488 262.397 419.92C261.757 418.352 260.845 417.072 259.661 416.08C258.509 415.056 257.085 414.544 255.389 414.544C253.853 414.544 252.589 414.976 251.597 415.84C250.605 416.704 250.109 417.904 250.109 419.44C250.109 420.72 250.429 421.824 251.069 422.752C251.709 423.648 252.637 424.528 253.853 425.392C255.101 426.256 256.605 427.296 258.365 428.512C259.901 429.504 261.277 430.496 262.493 431.488C263.709 432.48 264.685 433.6 265.421 434.848C266.157 436.096 266.525 437.584 266.525 439.312C266.525 441.424 265.965 443.168 264.845 444.544C263.757 445.92 262.317 446.96 260.525 447.664C258.733 448.336 256.765 448.672 254.621 448.672C252.637 448.672 251.053 448.48 249.869 448.096C248.685 447.712 247.693 447.312 246.893 446.896C246.189 446.448 245.645 446.224 245.261 446.224C244.941 446.224 244.701 446.4 244.541 446.752C244.413 447.104 244.301 447.632 244.205 448.336H243.101C243.165 447.568 243.197 446.672 243.197 445.648C243.229 444.624 243.245 443.296 243.245 441.664C243.277 440 243.293 437.904 243.293 435.376H244.397C244.525 437.488 244.877 439.472 245.453 441.328C246.061 443.152 246.973 444.624 248.189 445.744C249.437 446.864 251.085 447.424 253.133 447.424C254.253 447.424 255.245 447.232 256.109 446.848C257.005 446.432 257.725 445.824 258.269 445.024C258.813 444.224 259.085 443.232 259.085 442.048C259.085 440.704 258.765 439.536 258.125 438.544C257.517 437.552 256.669 436.624 255.581 435.76C254.525 434.896 253.293 434.016 251.885 433.12C250.381 432.128 248.973 431.136 247.661 430.144C246.349 429.152 245.293 428.016 244.493 426.736C243.725 425.456 243.341 423.936 243.341 422.176C243.341 420.16 243.837 418.512 244.829 417.232C245.853 415.92 247.181 414.96 248.813 414.352C250.477 413.712 252.237 413.392 254.093 413.392ZM296.188 413.344C299.58 413.344 302.54 414.032 305.068 415.408C307.628 416.784 309.612 418.768 311.02 421.36C312.428 423.92 313.132 427.04 313.132 430.72C313.132 434.304 312.412 437.44 310.972 440.128C309.532 442.816 307.516 444.912 304.924 446.416C302.364 447.92 299.436 448.672 296.14 448.672C292.748 448.672 289.772 447.984 287.212 446.608C284.684 445.232 282.716 443.248 281.308 440.656C279.9 438.064 279.196 434.944 279.196 431.296C279.196 427.712 279.916 424.576 281.356 421.888C282.828 419.2 284.828 417.104 287.356 415.6C289.916 414.096 292.86 413.344 296.188 413.344ZM295.996 414.208C294.204 414.208 292.636 414.928 291.292 416.368C289.98 417.808 288.956 419.792 288.22 422.32C287.516 424.848 287.164 427.776 287.164 431.104C287.164 434.496 287.564 437.456 288.364 439.984C289.196 442.48 290.3 444.416 291.676 445.792C293.084 447.136 294.636 447.808 296.332 447.808C298.124 447.808 299.676 447.088 300.988 445.648C302.332 444.208 303.356 442.224 304.06 439.696C304.796 437.136 305.164 434.208 305.164 430.912C305.164 427.488 304.748 424.528 303.916 422.032C303.116 419.536 302.012 417.616 300.604 416.272C299.228 414.896 297.692 414.208 295.996 414.208ZM342.89 413.344C345.002 413.344 346.73 413.664 348.074 414.304C349.45 414.912 350.666 415.632 351.722 416.464C352.362 416.944 352.842 417.008 353.162 416.656C353.514 416.272 353.754 415.392 353.882 414.016H354.986C354.922 415.264 354.874 416.784 354.842 418.576C354.81 420.336 354.794 422.688 354.794 425.632H353.69C353.53 424.16 353.322 422.912 353.066 421.888C352.81 420.832 352.458 419.904 352.01 419.104C351.562 418.304 350.922 417.584 350.09 416.944C349.29 416.144 348.362 415.552 347.306 415.168C346.25 414.784 345.146 414.592 343.994 414.592C342.266 414.592 340.794 415.056 339.578 415.984C338.362 416.88 337.37 418.112 336.602 419.68C335.866 421.248 335.322 423.024 334.97 425.008C334.618 426.96 334.442 428.992 334.442 431.104C334.442 433.248 334.618 435.312 334.97 437.296C335.354 439.248 335.93 440.992 336.698 442.528C337.498 444.064 338.522 445.28 339.77 446.176C341.018 447.072 342.49 447.52 344.186 447.52C345.242 447.52 346.298 447.328 347.354 446.944C348.442 446.528 349.37 445.936 350.138 445.168C351.386 444.208 352.234 443.024 352.682 441.616C353.13 440.176 353.466 438.272 353.69 435.904H354.794C354.794 438.944 354.81 441.408 354.842 443.296C354.874 445.152 354.922 446.72 354.986 448H353.882C353.754 446.624 353.53 445.76 353.21 445.408C352.922 445.056 352.426 445.104 351.722 445.552C350.538 446.384 349.274 447.12 347.93 447.76C346.618 448.368 344.922 448.672 342.842 448.672C339.45 448.672 336.474 447.984 333.914 446.608C331.386 445.232 329.418 443.248 328.01 440.656C326.602 438.064 325.898 434.944 325.898 431.296C325.898 427.712 326.618 424.576 328.058 421.888C329.53 419.2 331.53 417.104 334.058 415.6C336.618 414.096 339.562 413.344 342.89 413.344ZM382.782 414.016V414.976C381.758 415.008 380.974 415.136 380.43 415.36C379.918 415.552 379.582 415.936 379.422 416.512C379.262 417.056 379.182 417.92 379.182 419.104V442.912C379.182 444.064 379.262 444.928 379.422 445.504C379.614 446.08 379.966 446.464 380.478 446.656C380.99 446.848 381.758 446.976 382.782 447.04V448C381.918 447.936 380.83 447.904 379.518 447.904C378.206 447.872 376.878 447.856 375.534 447.856C373.966 447.856 372.51 447.872 371.166 447.904C369.854 447.904 368.782 447.936 367.95 448V447.04C368.974 446.976 369.742 446.848 370.254 446.656C370.766 446.464 371.102 446.08 371.262 445.504C371.454 444.928 371.55 444.064 371.55 442.912V419.104C371.55 417.92 371.454 417.056 371.262 416.512C371.102 415.936 370.75 415.552 370.206 415.36C369.694 415.136 368.942 415.008 367.95 414.976V414.016C368.782 414.048 369.854 414.08 371.166 414.112C372.51 414.144 373.966 414.16 375.534 414.16C376.878 414.16 378.206 414.144 379.518 414.112C380.83 414.08 381.918 414.048 382.782 414.016ZM410.669 413.92L422.333 443.968C422.781 445.12 423.277 445.92 423.821 446.368C424.397 446.784 424.909 447.008 425.357 447.04V448C424.397 447.936 423.261 447.904 421.949 447.904C420.669 447.872 419.373 447.856 418.061 447.856C416.589 447.856 415.197 447.872 413.885 447.904C412.573 447.904 411.533 447.936 410.765 448V447.04C412.397 446.976 413.421 446.704 413.837 446.224C414.285 445.712 414.189 444.64 413.549 443.008L405.389 420.688L406.253 419.44L398.957 438.448C398.253 440.208 397.821 441.648 397.661 442.768C397.533 443.888 397.613 444.752 397.901 445.36C398.221 445.968 398.717 446.4 399.389 446.656C400.093 446.88 400.925 447.008 401.885 447.04V448C400.829 447.936 399.821 447.904 398.861 447.904C397.901 447.872 396.925 447.856 395.933 447.856C395.229 447.856 394.557 447.872 393.917 447.904C393.309 447.904 392.765 447.936 392.285 448V447.04C392.957 446.912 393.645 446.48 394.349 445.744C395.053 445.008 395.741 443.76 396.413 442L407.357 413.92C407.869 413.952 408.413 413.968 408.989 413.968C409.597 413.968 410.157 413.952 410.669 413.92ZM414.029 434.176V435.136H399.725L400.205 434.176H414.029ZM449.475 414.016V414.976C448.387 415.008 447.555 415.136 446.979 415.36C446.435 415.552 446.067 415.936 445.875 416.512C445.683 417.056 445.587 417.92 445.587 419.104V443.488C445.587 444.48 445.651 445.216 445.779 445.696C445.939 446.176 446.227 446.496 446.643 446.656C447.091 446.816 447.747 446.896 448.611 446.896H450.963C452.051 446.896 453.075 446.64 454.035 446.128C454.995 445.616 455.859 444.896 456.627 443.968C457.395 443.008 458.035 441.872 458.547 440.56C459.059 439.248 459.443 437.792 459.699 436.192H460.803C460.707 437.28 460.659 438.688 460.659 440.416C460.659 441.152 460.675 442.224 460.707 443.632C460.739 445.04 460.835 446.496 460.995 448C459.363 447.936 457.523 447.904 455.475 447.904C453.427 447.872 451.603 447.856 450.003 447.856C449.203 447.856 448.179 447.856 446.931 447.856C445.683 447.856 444.339 447.872 442.899 447.904C441.459 447.904 440.003 447.92 438.531 447.952C437.059 447.952 435.667 447.968 434.355 448V447.04C435.379 446.976 436.147 446.848 436.659 446.656C437.171 446.464 437.507 446.08 437.667 445.504C437.859 444.928 437.955 444.064 437.955 442.912V419.104C437.955 417.92 437.859 417.056 437.667 416.512C437.507 415.936 437.155 415.552 436.611 415.36C436.099 415.136 435.347 415.008 434.355 414.976V414.016C435.155 414.048 436.227 414.08 437.571 414.112C438.947 414.144 440.403 414.16 441.939 414.16C443.347 414.16 444.723 414.144 446.067 414.112C447.443 414.08 448.579 414.048 449.475 414.016Z" fill="white"/>
</svg>
