<svg width="512" height="512" viewBox="0 0 512 512" fill="none" xmlns="http://www.w3.org/2000/svg">
<mask id="mask0_302_61" style="mask-type:alpha" maskUnits="userSpaceOnUse" x="0" y="0" width="512" height="512">
<rect width="512" height="512" rx="256" fill="#1A0909"/>
</mask>
<g mask="url(#mask0_302_61)">
<rect width="5349.88" height="5349.88" rx="266" fill="#89A2FC"/>
<rect width="872.813" height="417.352" rx="208.676" transform="matrix(0.78717 -0.616736 0.302422 0.953174 -192.831 109.888)" fill="#6B4CE6"/>
<circle cx="256.082" cy="256.082" r="188.082" fill="white"/>
<path d="M340.684 272.2C341.484 271.933 342.684 271.8 344.284 271.8C348.818 271.8 351.084 274.733 351.084 280.6C351.084 283.8 350.351 286.533 348.884 288.8C347.551 290.933 345.418 292.267 342.484 292.8C330.351 295.067 318.418 297.6 306.684 300.4L306.084 305.2C302.351 331.467 294.884 350.867 283.684 363.4C272.618 376.067 258.751 382.4 242.084 382.4C231.018 382.4 222.418 379.667 216.284 374.2C210.284 368.867 207.284 362 207.284 353.6C207.284 339.6 213.551 327.133 226.084 316.2C238.618 305.267 257.618 295.6 283.084 287.2L287.084 259C287.618 255.8 288.284 251.533 289.084 246.2C282.818 262.733 274.818 275.067 265.084 283.2C255.351 291.333 244.484 295.4 232.484 295.4C221.018 295.4 212.284 291.933 206.284 285C200.284 277.933 197.284 268.867 197.284 257.8C197.284 252.867 197.818 247.467 198.884 241.6C199.951 235.6 201.618 227.533 203.884 217.4C205.884 208.2 207.351 200.867 208.284 195.4C209.351 189.933 209.884 185.067 209.884 180.8C209.884 174.4 207.418 171.2 202.484 171.2C198.618 171.2 194.018 173.133 188.684 177C183.484 180.733 177.951 186.533 172.084 194.4C170.218 196.933 168.151 198.2 165.884 198.2C164.018 198.2 162.351 197.333 160.884 195.6C159.551 193.733 158.884 191.667 158.884 189.4C158.884 185.267 160.751 180.6 164.484 175.4C178.084 156.733 194.018 147.4 212.284 147.4C220.418 147.4 226.751 149.867 231.284 154.8C235.951 159.733 238.284 167 238.284 176.6C238.284 183.533 237.618 190.667 236.284 198C235.084 205.2 233.218 214.4 230.684 225.6C229.084 232.267 227.884 237.667 227.084 241.8C226.284 245.8 225.884 249.133 225.884 251.8C225.884 258.6 227.084 263.467 229.484 266.4C231.884 269.333 236.084 270.8 242.084 270.8C249.284 270.8 256.618 266.867 264.084 259C271.684 251 278.484 238.933 284.484 222.8C290.618 206.667 295.018 186.933 297.684 163.6C298.351 157.733 299.884 153.6 302.284 151.2C304.684 148.667 308.151 147.4 312.684 147.4C322.018 147.4 326.684 152.067 326.684 161.4C326.684 163 326.618 164.267 326.484 165.2C323.684 185.067 321.084 203 318.684 219C317.351 228.6 315.884 238.467 314.284 248.6C312.818 258.733 311.351 269 309.884 279.4C319.618 276.733 329.884 274.333 340.684 272.2ZM280.084 308.2C247.818 319.4 231.684 333 231.684 349C231.684 352.733 232.818 355.8 235.084 358.2C237.484 360.733 240.818 362 245.084 362C263.618 362 275.218 344.533 279.884 309.6L280.084 308.2Z" fill="black"/>
</g>
</svg>
