<svg width="1151" height="400" viewBox="0 0 1151 400" fill="none" xmlns="http://www.w3.org/2000/svg">
<rect width="1150.58" height="400" fill="#6B4CE6"/>
<path d="M411.441 180.36L401.457 199.896V213H395.697V199.992L385.617 180.36H391.761L398.817 194.28L405.489 180.36H411.441ZM439.69 213L437.674 206.616H426.49L424.474 213H418.762L429.658 180.36H434.746L445.69 213H439.69ZM429.61 196.632L428.122 201.336H435.994L434.506 196.632L432.106 188.376L429.61 196.632ZM460.502 213V180.36H465.782C468.31 183.656 470.71 187.144 472.982 190.824C475.254 194.472 477.318 198.232 479.174 202.104L478.742 192.36V180.36H484.262V213H478.982C476.934 208.968 474.806 204.92 472.598 200.856C470.422 196.76 468.102 192.904 465.638 189.288L466.022 200.52V213H460.502ZM499.364 213.48V207.96C501.956 207.96 503.828 207.48 504.98 206.52C506.164 205.528 506.756 203.784 506.756 201.288V180.36H512.516V201.288C512.516 203.784 512.132 205.944 511.364 207.768C510.596 209.592 509.252 211 507.332 211.992C505.444 212.984 502.788 213.48 499.364 213.48ZM535.795 213H530.035V180.36H535.795V213ZM580.234 208.152C583.946 208.152 585.802 206.776 585.802 204.024C585.802 202.904 585.514 202.024 584.938 201.384C584.394 200.744 583.37 200.184 581.866 199.704L577.93 198.408C573.226 196.872 570.874 193.784 570.874 189.144C570.874 186.456 571.706 184.248 573.37 182.52C575.066 180.76 577.706 179.88 581.29 179.88C582.794 179.88 584.282 180.056 585.754 180.408C587.226 180.728 588.794 181.256 590.458 181.992L588.682 186.936C587.146 186.328 585.834 185.896 584.746 185.64C583.69 185.352 582.602 185.208 581.482 185.208C580.01 185.208 578.842 185.48 577.978 186.024C577.146 186.536 576.73 187.48 576.73 188.856C576.73 189.88 577.018 190.728 577.594 191.4C578.202 192.04 579.194 192.584 580.57 193.032L584.506 194.328C586.874 195.128 588.65 196.296 589.834 197.832C591.05 199.336 591.658 201.336 591.658 203.832C591.658 206.712 590.746 209.048 588.922 210.84C587.098 212.6 584.234 213.48 580.33 213.48C578.794 213.48 577.194 213.304 575.53 212.952C573.898 212.568 572.106 211.928 570.154 211.032L571.93 206.088C573.722 206.856 575.242 207.4 576.49 207.72C577.77 208.008 579.018 208.152 580.234 208.152ZM630.421 193.224V200.088C630.421 204.248 629.381 207.528 627.301 209.928C625.221 212.296 622.181 213.48 618.181 213.48C614.149 213.48 611.093 212.296 609.013 209.928C606.965 207.528 605.941 204.248 605.941 200.088V193.224C605.941 189.064 606.965 185.8 609.013 183.432C611.093 181.064 614.149 179.88 618.181 179.88C622.181 179.88 625.221 181.064 627.301 183.432C629.381 185.8 630.421 189.064 630.421 193.224ZM624.517 193.224C624.517 190.6 624.005 188.632 622.981 187.32C621.957 185.976 620.357 185.304 618.181 185.304C616.005 185.304 614.405 185.976 613.381 187.32C612.357 188.632 611.845 190.6 611.845 193.224V200.088C611.845 202.712 612.357 204.696 613.381 206.04C614.405 207.384 616.005 208.056 618.181 208.056C620.357 208.056 621.957 207.384 622.981 206.04C624.005 204.696 624.517 202.712 624.517 200.088V193.224ZM651.812 200.088C651.812 202.424 652.324 204.344 653.348 205.848C654.372 207.32 656.052 208.056 658.388 208.056C659.348 208.056 660.34 207.928 661.364 207.672C662.42 207.416 663.716 206.984 665.252 206.376L667.028 211.368C665.3 212.136 663.7 212.68 662.228 213C660.788 213.32 659.396 213.48 658.052 213.48C655.364 213.48 653.108 212.904 651.284 211.752C649.492 210.6 648.148 209.016 647.252 207C646.356 204.984 645.908 202.68 645.908 200.088V193.224C645.908 190.632 646.356 188.328 647.252 186.312C648.148 184.296 649.492 182.728 651.284 181.608C653.108 180.456 655.364 179.88 658.052 179.88C659.364 179.88 660.724 180.04 662.132 180.36C663.54 180.648 665.076 181.16 666.74 181.896L664.964 186.984C663.492 186.376 662.26 185.944 661.268 185.688C660.276 185.432 659.316 185.304 658.388 185.304C656.052 185.304 654.372 186.04 653.348 187.512C652.324 188.984 651.812 190.888 651.812 193.224V200.088ZM688.157 213H682.397V180.36H688.157V213ZM723.899 213L721.883 206.616H710.699L708.683 213H702.971L713.867 180.36H718.955L729.899 213H723.899ZM713.819 196.632L712.331 201.336H720.203L718.715 196.632L716.315 188.376L713.819 196.632ZM763.527 207.48V213H744.711V180.36H750.471V207.48H763.527Z" fill="white"/>
</svg>
